<svg xmlns="http://www.w3.org/2000/svg" xml:space="preserve" width="2000" height="484" data-id="lg_kFEyofcMVT5zRPi5wK" data-version="1" viewBox="0 0 2000 484"><g data-padding="20"><g transform="translate(10 8.627)scale(.96435)"><path fill="#ec0000" d="M933.22 128.653a108.076 108.076 0 1 0 0 216.152 108.076 108.076 0 1 0 0-216.152"/><path fill="#07c100" d="M1092.25 128.653a108.076 108.076 0 1 0 0 216.152 108.076 108.076 0 1 0 0-216.152"/><path fill="#286cff" d="M1014.19.083a108.076 108.076 0 1 0 0 216.152 108.076 108.076 0 1 0 0-216.152"/><rect width="203.671" height="41.81" x="169.397" y="-20.847" fill="none" rx="0" ry="0" transform="translate(281.37 426.27)scale(2.75)"/><path d="M797.6 384.379h8.94l-26.08 72.63h-8.49l-26.08-72.63h8.84l16.99 47.84q1.04 2.88 1.86 5.51.82 2.64 1.47 5.07.64 2.43 1.14 4.72.5-2.29 1.14-4.74.65-2.46 1.49-5.12.85-2.66 1.89-5.59Zm49.92 6.42q-6.01 0-10.8 2.06t-8.15 5.96q-3.35 3.9-5.14 9.42-1.79 5.51-1.79 12.42 0 9.14 2.86 15.87t8.54 10.4q5.69 3.68 14.23 3.68 4.87 0 9.17-.82t8.37-2.06v7.35q-3.97 1.49-8.35 2.21-4.37.72-10.38.72-11.07 0-18.5-4.59-7.43-4.6-11.13-12.99-3.7-8.4-3.7-19.82 0-8.25 2.31-15.08t6.76-11.8q4.44-4.97 10.93-7.67 6.48-2.71 14.87-2.71 5.52 0 10.63 1.09 5.12 1.1 9.24 3.13l-3.38 7.16q-3.47-1.59-7.62-2.76t-8.97-1.17m96.01 29.81q0 8.39-2.13 15.27-2.14 6.88-6.34 11.82-4.19 4.95-10.4 7.63t-14.41 2.68q-8.44 0-14.73-2.68-6.28-2.68-10.43-7.65t-6.21-11.87q-2.06-6.91-2.06-15.3 0-11.13 3.68-19.53 3.67-8.39 11.15-13.06 7.47-4.67 18.75-4.67 10.78 0 18.16 4.62 7.37 4.62 11.17 12.99t3.8 19.75m-57.82 0q0 9.24 2.64 15.99 2.63 6.76 8.07 10.43 5.44 3.68 13.83 3.68 8.45 0 13.84-3.68 5.39-3.67 7.97-10.43 2.58-6.75 2.58-15.99 0-14.06-5.88-21.98-5.89-7.93-18.36-7.93-8.44 0-13.91 3.63-5.46 3.62-8.12 10.31-2.66 6.68-2.66 15.97m130.76-36.23v72.63h-9.74l-39.59-61h-.4q.15 2.43.35 5.54.2 3.1.32 6.6.13 3.5.13 7.13v41.73h-7.85v-72.63h9.68l39.45 60.8h.34q-.1-1.73-.25-4.94-.14-3.2-.27-6.9-.12-3.7-.12-6.88v-42.08Zm76.59 0v72.63h-9.73l-39.59-61h-.4q.15 2.43.35 5.54.2 3.1.32 6.6t.12 7.13v41.73h-7.84v-72.63h9.68l39.44 60.8h.35q-.1-1.73-.25-4.94-.15-3.2-.27-6.9-.13-3.7-.13-6.88v-42.08Zm60.26 65.18v7.45h-40.44v-72.63h40.44v7.45h-31.99v23.5h30.15v7.35h-30.15v26.88Zm47.14-58.76q-6.01 0-10.81 2.06-4.79 2.06-8.14 5.96-3.36 3.9-5.14 9.42-1.79 5.51-1.79 12.42 0 9.14 2.85 15.87 2.86 6.73 8.55 10.4 5.69 3.68 14.23 3.68 4.87 0 9.16-.82 4.3-.82 8.37-2.06v7.35q-3.97 1.49-8.34 2.21t-10.38.72q-11.08 0-18.51-4.59-7.42-4.6-11.12-12.99-3.7-8.4-3.7-19.82 0-8.25 2.31-15.08t6.75-11.8q4.45-4.97 10.93-7.67 6.48-2.71 14.88-2.71 5.51 0 10.63 1.09 5.11 1.1 9.24 3.13l-3.38 7.16q-3.48-1.59-7.63-2.76-4.14-1.17-8.96-1.17m55.34 1.03v65.18h-8.5v-65.18h-22.85v-7.45h54.1v7.45Z"/></g><path fill="transparent" stroke="transparent" d="M719.5 0h561v484h-561z"/></g></svg>