<svg xmlns="http://www.w3.org/2000/svg" xml:space="preserve" width="2000" height="121" data-id="lg_kFEyofcMVT5zRPi5wK" data-version="1" viewBox="0 0 2000 121"><g data-padding="20"><g transform="translate(10 2.157)scale(.96435)"><rect width="417.254" height="114.13" x="561.315" y="-57.163" fill="none" rx="0" ry="0" transform="matrix(.97 0 0 .97 358.73 61.08)"/><path fill="#303030" d="M904.804 24.575v-1.76h8.79l14.07 60.17h6.44l14.07-60.17h8.89v1.76l-16.61 66.51-19.14.1Zm52.65 32.43q0-8.99 2.44-15.63t6.59-10.99q4.15-4.34 9.43-6.49 5.27-2.15 10.94-2.15 5.47 0 9.03 1.17 3.57 1.17 5.13 2.73v8.4h-1.56q-1.66-1.95-4.69-3.07-3.03-1.13-7.52-1.13-6.06 0-10.8 3.13-4.73 3.13-7.42 9.18-2.68 6.06-2.68 14.85t2.68 14.84q2.69 6.06 7.38 9.18 4.68 3.13 10.74 3.13 4.49 0 7.57-1.12 3.08-1.13 4.74-3.08h1.56v8.4q-1.56 1.47-5.13 2.69-3.56 1.22-9.23 1.22-5.76 0-11.04-2.15-5.27-2.15-9.37-6.5-4.1-4.34-6.45-10.99-2.34-6.64-2.34-15.62m45.8 0q0-12.5 4.01-20.27 4-7.76 10.5-11.43 6.49-3.66 14.11-3.66t14.12 3.66q6.49 3.67 10.5 11.43 4 7.77 4 20.27 0 12.4-4 20.22-4.01 7.81-10.5 11.47-6.5 3.66-14.12 3.66t-14.11-3.66q-6.5-3.66-10.5-11.47-4.01-7.82-4.01-20.22m8.89 0q0 9.08 2.59 15.14 2.59 6.05 7.08 9.03 4.5 2.98 10.06 2.98 5.47 0 9.97-2.98 4.49-2.98 7.17-9.03 2.69-6.06 2.69-15.14 0-9.18-2.73-15.19-2.74-6.01-7.23-8.99-4.5-2.98-9.87-2.98-5.56 0-10.06 3.03-4.49 3.03-7.08 9.04-2.59 6-2.59 15.09m90.15 21.09-.39-55.28h8.5v68.37h-11.82l-23.54-54.99h-1.27l.2 54.99h-8.4v-68.37h11.82l23.63 55.28Zm52.75 0-.39-55.28h8.49v68.37h-11.82l-23.53-54.99h-1.27l.19 54.99h-8.4v-68.37h11.82l23.64 55.28Zm16.01-55.28h34.19v7.82h-25.59v23.24q3.22-1.37 7.28-2.1 4.05-.73 8.25-.93 4.2-.19 7.62.39v7.43l-.78.58q-2.64-.78-6.6-.78-3.95 0-8.15.69-4.2.68-7.62 2.24v21.98h25.59v7.81h-34.19Zm36.24 34.19q0-8.99 2.44-15.63t6.6-10.99q4.15-4.34 9.42-6.49t10.94-2.15q5.47 0 9.03 1.17 3.57 1.17 5.13 2.73v8.4h-1.56q-1.66-1.95-4.69-3.07-3.03-1.13-7.52-1.13-6.06 0-10.79 3.13-4.74 3.13-7.43 9.18-2.68 6.06-2.68 14.85t2.68 14.84q2.69 6.06 7.38 9.18 4.69 3.13 10.74 3.13 4.5 0 7.57-1.12 3.08-1.13 4.74-3.08h1.56v8.4q-1.56 1.47-5.13 2.69-3.56 1.22-9.23 1.22-5.76 0-11.03-2.15-5.28-2.15-9.38-6.5-4.1-4.34-6.45-10.99-2.34-6.64-2.34-15.62m44.25-34.19h38.87v7.91h-15.04v60.46h-8.6v-60.46h-15.23Z"/><path fill="#ec0000" d="M784.834 45.127a37.979 37.979 0 1 0 0 75.957 37.979 37.979 0 1 0 0-75.958"/><path fill="#07c100" d="M840.764 45.127a37.979 37.979 0 1 0 0 75.957 37.979 37.979 0 1 0 0-75.958"/><path fill="#286cff" d="M813.314-.084a37.979 37.979 0 1 0 0 75.958 37.979 37.979 0 1 0 0-75.957"/></g><path fill="transparent" stroke="transparent" d="M720.177 0h561v121h-561z"/></g></svg>